<?xml version="1.0" encoding="UTF-8"?>
<svg width="294px" height="229px" viewBox="0 0 294 229" version="1.1" xmlns="http://www.w3.org/2000/svg" xmlns:xlink="http://www.w3.org/1999/xlink">
    <!-- Generator: Sketch 59.1 (86144) - https://sketch.com -->
    <title>“</title>
    <desc>Created with Sketch.</desc>
    <g id="Page-1" stroke="none" stroke-width="1" fill="none" fill-rule="evenodd">
        <path d="M271.088656,165.2 C271.088656,186.466773 265.772042,202.416614 255.138655,213.05 C244.505269,223.683386 230.02208,229 211.688656,229 C192.621894,229 178.138705,222.400066 168.238655,209.2 C158.338606,195.999934 153.388655,180.966751 153.388655,164.1 C153.388655,139.166542 158.155274,116.98343 167.688656,97.55 C177.222036,78.1165695 188.58859,61.6167345 201.788656,48.05 C214.988721,34.4832655 228.555252,23.8500385 242.488655,16.15 C256.422059,8.4499615 267.788612,3.133348 276.588656,0.2 L293.088656,38.7 C276.221905,46.766707 261.555384,57.9499285 249.088656,72.25 C236.621926,86.5500715 228.922003,103.233238 225.988655,122.3 C228.188667,121.566663 231.488634,121.2 235.888655,121.2 C246.88871,121.2 255.505291,125.599956 261.738655,134.4 C267.97202,143.200044 271.088656,153.466608 271.088656,165.2 Z M118.188656,165.2 C118.188656,186.466773 112.872042,202.416614 102.238655,213.05 C91.605269,223.683386 77.1220805,229 58.7886555,229 C39.7218935,229 25.238705,222.400066 15.3386555,209.2 C5.438606,195.999934 0.4886555,180.966751 0.4886555,164.1 C0.4886555,139.166542 5.2552745,116.98343 14.7886555,97.55 C24.3220365,78.1165695 35.6885895,61.6167345 48.8886555,48.05 C62.0887215,34.4832655 75.6552525,23.8500385 89.5886555,16.15 C103.522059,8.4499615 114.888612,3.133348 123.688656,0.2 L140.188656,38.7 C123.321905,46.766707 108.655384,57.9499285 96.1886555,72.25 C83.7219265,86.5500715 76.0220035,103.233238 73.0886555,122.3 C75.2886665,121.566663 78.5886335,121.2 82.9886555,121.2 C93.9887105,121.2 102.605291,125.599956 108.838656,134.4 C115.07202,143.200044 118.188656,153.466608 118.188656,165.2 Z" id="“" fill="#1C80AA" fill-rule="nonzero"></path>
    </g>
</svg>