<?xml version="1.0" encoding="UTF-8"?>
<svg width="32px" height="32px" viewBox="0 0 32 32" version="1.1" xmlns="http://www.w3.org/2000/svg" xmlns:xlink="http://www.w3.org/1999/xlink">
    <title>iconfinder_social_media_logo_spotify_1287342 copy 3</title>
    <g id="Page-1" stroke="none" stroke-width="1" fill="none" fill-rule="evenodd">
        <g id="iconfinder_social_media_logo_spotify_1287342-copy-3" fill-rule="nonzero">
            <path d="M16,0 C7.163,0 0,7.163 0,16 C0,24.836 7.163,32 16,32 C24.837,32 32,24.836 32,16 C32,7.163 24.837,0 16,0 Z" id="Path" fill="#7EA684"></path>
            <path d="M14.068,9.289 C12.836,9.259 11.474,9.354 10.117,9.563 C9.159,9.706 8.207,9.884 7.291,10.2 C6.595,10.438 6.244,11.194 6.476,11.86 C6.72,12.562 7.44,12.925 8.148,12.711 C9.903,12.187 11.712,11.997 13.533,11.932 C14.723,11.89 15.907,11.968 17.085,12.093 C18.525,12.242 19.941,12.515 21.327,12.926 C22.505,13.277 23.63,13.753 24.701,14.36 C25.32,14.711 26.004,14.574 26.427,14.045 C26.855,13.504 26.826,12.837 26.35,12.314 C26.177,12.118 25.939,12.005 25.713,11.88 C24.362,11.136 22.934,10.595 21.447,10.202 C19.084,9.563 16.668,9.259 14.068,9.289 Z M13.961,14.18 C13.467,14.192 13.021,14.204 12.575,14.228 C11.087,14.299 9.636,14.561 8.208,14.984 C7.565,15.174 7.25,15.763 7.44,16.4 C7.607,16.959 8.214,17.275 8.82,17.114 C9.028,17.06 9.237,16.983 9.451,16.935 C11.819,16.352 14.217,16.275 16.627,16.608 C18.906,16.917 21.066,17.584 23.041,18.78 C23.63,19.137 24.279,18.875 24.552,18.441 C24.897,17.9 24.731,17.203 24.177,16.864 C23.475,16.43 22.743,16.055 21.987,15.745 C19.394,14.686 16.698,14.192 13.961,14.18 Z M13.384,18.857 C12.938,18.875 12.491,18.899 12.051,18.94 C10.915,19.035 9.796,19.232 8.683,19.487 C8.171,19.606 7.886,20.07 7.993,20.534 C8.106,21.034 8.54,21.308 9.076,21.206 C9.368,21.152 9.659,21.093 9.951,21.033 C11.141,20.777 12.355,20.664 13.569,20.616 C14.36,20.586 15.152,20.634 15.937,20.717 C17.306,20.86 18.621,21.187 19.888,21.717 C20.501,21.973 21.072,22.306 21.661,22.615 C22.083,22.835 22.607,22.675 22.821,22.276 C23.065,21.824 22.934,21.33 22.5,21.068 C21.81,20.646 21.084,20.294 20.328,19.985 C18.102,19.065 15.77,18.791 13.384,18.857 Z" id="Shape" fill="#FFFFFF"></path>
        </g>
    </g>
</svg>