<svg width="32" height="32" viewBox="0 0 32 32" fill="none" xmlns="http://www.w3.org/2000/svg">
<path d="M16 0C7.163 0 0 7.163 0 16C0 24.836 7.163 32 16 32C24.837 32 32 24.836 32 16C32 7.163 24.837 0 16 0Z" fill="white"/>
<path fill-rule="evenodd" clip-rule="evenodd" d="M32 16C32 11.5816 30.2092 7.58155 27.3138 4.68619C24.4184 1.79081 20.4184 0 16 0C11.5816 0 7.58155 1.7908 4.68619 4.68619C1.79081 7.58155 0 11.5816 0 16C0 20.4184 1.7908 24.4184 4.68619 27.3138C7.58155 30.2092 11.5816 32 16 32C20.4184 32 24.4184 30.2092 27.3138 27.3138C30.2092 24.4184 32 20.4184 32 16ZM11.9327 19.0904V8.91217V8.62544L12.2159 8.57707L22.4708 6.82635L22.4806 6.82438L22.8875 6.74281V7.15816V7.20246H22.8862L22.8725 20.6304L22.8758 20.6492C22.8799 20.6748 22.8827 20.6966 22.8842 20.715C22.9475 21.5573 22.6637 22.3609 22.1533 22.98C21.6429 23.5991 20.9057 24.0343 20.0624 24.1395C20.015 24.1454 19.964 24.1505 19.9099 24.1545C19.1187 24.2142 18.3809 23.9665 17.8155 23.5074C17.2496 23.0478 16.8581 22.3775 16.7601 21.5928C16.7544 21.5469 16.7495 21.497 16.7454 21.4431C16.6811 20.6023 16.9654 19.7982 17.4763 19.1786C17.9873 18.559 18.7251 18.1232 19.5673 18.0191C19.8271 17.9867 20.0853 17.9882 20.3373 18.0207C20.4287 18.0324 20.519 18.0484 20.6079 18.0684V11.5489L14.2142 12.7388L14.211 17.113C14.2106 17.6361 14.2103 18.158 14.2103 21.7554C14.2691 22.5899 13.9862 23.3857 13.4801 24.0001C12.9698 24.6196 12.2324 25.0551 11.3897 25.1603C11.3446 25.1659 11.2958 25.1707 11.2436 25.1747C10.4491 25.2355 9.7092 24.9872 9.14267 24.5268C8.57539 24.0659 8.18376 23.3936 8.08669 22.6071C8.08133 22.5636 8.07661 22.5159 8.07266 22.4641C8.0073 21.6224 8.29046 20.8183 8.8009 20.1988C9.31126 19.5793 10.049 19.1441 10.8925 19.04C11.1525 19.0076 11.4106 19.0096 11.6621 19.0424C11.7536 19.0543 11.8439 19.0703 11.9327 19.0904L11.9327 19.0904Z" fill="#7EA684"/>
</svg>
