<?xml version="1.0" encoding="utf-8"?>
<!-- Generator: Adobe Illustrator 22.0.1, SVG Export Plug-In . SVG Version: 6.00 Build 0)  -->
<svg version="1.1" id="レイヤー_1" xmlns="http://www.w3.org/2000/svg" xmlns:xlink="http://www.w3.org/1999/xlink" x="0px"
	 y="0px" viewBox="0 0 300 34.684" style="enable-background:new 0 0 300 34.684;" xml:space="preserve">
<g>
	<path d="M4.159,9.668c0-4.459-0.141-5.257-2.065-5.491L0.592,3.989C0.264,3.755,0.264,3.004,0.639,2.816
		c2.628-0.235,5.867-0.375,10.466-0.375c2.91,0,5.679,0.235,7.838,1.408c2.253,1.173,3.895,3.285,3.895,6.571
		c0,4.458-3.52,6.899-5.867,7.838c-0.235,0.282,0,0.751,0.235,1.126c3.755,6.055,6.242,9.809,9.434,12.484
		c0.798,0.704,1.971,1.22,3.238,1.314c0.235,0.094,0.282,0.469,0.047,0.657c-0.422,0.141-1.173,0.235-2.065,0.235
		c-3.989,0-6.383-1.174-9.715-5.914c-1.22-1.736-3.145-4.975-4.6-7.087c-0.704-1.033-1.455-1.502-3.332-1.502
		c-2.112,0-2.206,0.047-2.206,1.032v5.913c0,4.928,0.094,5.491,2.816,5.867l0.986,0.141c0.281,0.235,0.188,1.033-0.094,1.174
		c-2.112-0.094-3.708-0.141-5.585-0.141c-1.971,0-3.661,0.047-5.867,0.141c-0.281-0.141-0.375-0.845-0.094-1.174l1.173-0.141
		c2.722-0.329,2.816-0.939,2.816-5.867V9.668z M8.008,16.38c0,0.845,0,1.361,0.141,1.549c0.141,0.141,0.845,0.235,3.239,0.235
		c1.689,0,3.473-0.188,4.834-1.22c1.267-0.986,2.347-2.628,2.347-5.82c0-3.708-2.3-7.228-7.509-7.228
		c-2.91,0-3.051,0.188-3.051,1.502V16.38z"/>
	<path d="M34.621,20.087c0-1.83,0-2.065-1.267-2.91l-0.422-0.282c-0.188-0.188-0.188-0.704,0.047-0.845
		c1.08-0.375,3.755-1.596,4.834-2.3c0.235,0,0.422,0.094,0.469,0.282c-0.094,1.643-0.188,3.896-0.188,5.82v8.448
		c0,3.379,0.094,3.848,1.783,4.083l0.986,0.141c0.329,0.235,0.235,1.033-0.094,1.174c-1.408-0.094-2.769-0.141-4.412-0.141
		c-1.69,0-3.098,0.047-4.412,0.141c-0.329-0.141-0.422-0.939-0.094-1.174l0.986-0.141c1.736-0.235,1.783-0.704,1.783-4.083V20.087z
		 M38.516,6.712c0,1.69-1.173,2.441-2.487,2.441c-1.455,0-2.394-1.08-2.394-2.347c0-1.549,1.126-2.535,2.535-2.535
		C37.578,4.271,38.516,5.397,38.516,6.712z"/>
	<path d="M46.57,20.087c0-1.83,0-2.065-1.267-2.91l-0.422-0.282c-0.188-0.188-0.188-0.704,0.047-0.845
		c1.08-0.375,3.755-1.596,4.693-2.3c0.188,0,0.422,0.094,0.516,0.329c-0.094,1.08-0.094,1.784-0.094,2.206
		c0,0.282,0.188,0.516,0.516,0.516c1.971-1.22,4.177-2.394,6.571-2.394c3.896,0,5.491,2.675,5.491,5.82v8.073
		c0,3.379,0.094,3.848,1.784,4.083l1.032,0.141c0.329,0.235,0.235,1.033-0.094,1.174c-1.408-0.094-2.769-0.141-4.412-0.141
		c-1.69,0-3.098,0.047-4.365,0.141c-0.329-0.141-0.422-0.939-0.094-1.174l0.892-0.141c1.736-0.282,1.784-0.704,1.784-4.083v-6.993
		c0-2.675-1.22-4.646-4.412-4.646c-1.784,0-3.332,0.751-3.989,1.643c-0.61,0.798-0.704,1.455-0.704,2.816v7.181
		c0,3.379,0.094,3.802,1.783,4.083l0.845,0.141c0.329,0.235,0.235,1.033-0.094,1.174c-1.267-0.094-2.628-0.141-4.271-0.141
		c-1.69,0-3.098,0.047-4.412,0.141c-0.329-0.141-0.422-0.939-0.094-1.174l0.986-0.141c1.736-0.235,1.783-0.704,1.783-4.083V20.087z"
		/>
	<path d="M70.977,7.087c0-2.769-0.047-3.051-1.455-3.896L69.053,2.91c-0.235-0.141-0.235-0.798,0-0.939
		c1.173-0.375,3.379-1.08,5.069-1.971c0.188,0,0.375,0.094,0.469,0.282c-0.047,1.408-0.141,3.755-0.141,5.82V22.2
		c0,0.61,0.047,0.704,0.845,0.704c1.032,0,1.924-0.516,3.191-1.83l1.924-2.065c1.314-1.408,1.643-1.924,1.643-2.159
		s-0.235-0.375-1.032-0.469l-1.126-0.141c-0.423-0.141-0.423-1.033,0-1.173h1.079c2.065,0,4.834-0.094,7.462-0.375
		c0.329,0.141,0.375,0.938,0.094,1.173l-1.502,0.281c-0.939,0.188-1.737,0.657-2.957,1.643c-1.83,1.455-3.426,3.145-4.271,3.942
		c-0.563,0.516-0.61,0.751-0.329,1.126c0.798,1.08,1.549,1.971,3.145,3.755c1.83,2.065,3.473,3.896,4.412,4.787
		c0.657,0.61,1.596,0.892,2.44,1.033l0.657,0.094c0.329,0.235,0.282,1.033-0.094,1.174c-1.361-0.094-2.957-0.141-4.459-0.141
		c-1.877,0-3.52,0.047-4.881,0.141c-0.375-0.188-0.422-0.986-0.094-1.174l0.845-0.141c0.704-0.094,1.173-0.188,1.173-0.469
		c0-0.281-0.188-0.61-0.798-1.314l-5.022-5.82c-0.422-0.469-0.939-0.657-1.455-0.657c-0.845,0-0.892,0.141-0.892,1.596v2.581
		c0,3.379,0.094,3.848,1.784,4.083l1.126,0.141c0.329,0.235,0.235,1.033-0.094,1.174c-1.549-0.094-2.91-0.141-4.553-0.141
		c-1.69,0-3.097,0.047-4.506,0.141c-0.328-0.141-0.422-0.939-0.047-1.174l1.032-0.141c1.737-0.235,1.784-0.704,1.784-4.083V7.087z"
		/>
	<path d="M109.952,24.124c0,5.867-4.036,10.091-9.903,10.091c-5.397,0-9.621-3.802-9.621-9.668c0-5.914,4.458-10.138,9.997-10.138
		C105.681,14.409,109.952,18.351,109.952,24.124z M99.862,15.817c-3.098,0-5.397,2.957-5.397,8.119c0,4.271,1.924,8.87,6.054,8.87
		s5.397-4.318,5.397-7.932C105.916,20.885,104.32,15.817,99.862,15.817z"/>
	<path d="M129.338,9.621c0-4.928-0.094-5.679-2.816-5.913l-1.173-0.094c-0.282-0.187-0.188-1.032,0.094-1.173
		c2.3,0.094,3.802,0.141,5.914,0.141c1.83,0,3.426-0.047,5.444-0.141c0.281,0.141,0.375,0.986,0.094,1.173l-0.892,0.094
		c-2.722,0.281-2.816,0.986-2.816,5.913v5.397c0,0.892,0.094,1.784,0.61,1.784c0.422,0,0.986-0.282,1.314-0.516
		c0.657-0.563,1.877-1.784,2.393-2.253l5.069-5.022c0.892-0.845,3.191-3.238,3.661-3.896c0.235-0.328,0.329-0.563,0.329-0.751
		c0-0.187-0.188-0.328-0.798-0.469l-1.267-0.282c-0.329-0.328-0.282-0.938,0.094-1.173c1.643,0.094,3.52,0.141,5.163,0.141
		c1.642,0,3.238-0.047,4.646-0.141c0.329,0.235,0.375,0.892,0.094,1.173c-1.22,0.094-3.051,0.563-4.365,1.314
		s-3.942,2.957-6.571,5.444l-4.224,3.99c-0.657,0.657-1.08,1.08-1.08,1.455c0,0.328,0.282,0.704,0.892,1.455
		c4.459,5.116,8.073,9.34,11.733,13.188c1.126,1.126,2.159,1.736,3.755,1.924l1.267,0.141c0.329,0.235,0.235,1.033-0.094,1.174
		c-1.22-0.094-3.051-0.141-5.257-0.141c-1.924,0-3.567,0.047-5.726,0.141c-0.329-0.094-0.469-0.892-0.188-1.174l1.08-0.187
		c0.657-0.094,1.126-0.235,1.126-0.469c0-0.281-0.329-0.657-0.657-1.08c-0.892-1.126-2.112-2.394-3.896-4.412l-3.755-4.224
		c-2.675-3.004-3.426-3.942-4.552-3.942c-0.704,0-0.798,0.61-0.798,2.253v6.054c0,4.928,0.094,5.585,2.722,5.867l1.267,0.141
		c0.281,0.188,0.188,1.033-0.094,1.174c-2.3-0.094-3.895-0.141-5.726-0.141c-1.924,0-3.52,0.047-5.444,0.141
		c-0.282-0.141-0.375-0.845-0.094-1.174l0.939-0.141c2.487-0.375,2.581-0.939,2.581-5.867V9.621z"/>
	<path d="M167.163,23.842c0.704-0.235,0.798-0.657,0.798-1.361l0.047-2.159c0.047-1.737-0.516-4.083-3.426-4.083
		c-1.314,0-2.91,0.657-3.004,2.112c-0.047,0.751-0.094,1.314-0.469,1.596c-0.704,0.563-1.971,0.892-2.675,0.892
		c-0.423,0-0.657-0.235-0.657-0.657c0-2.441,5.304-5.773,8.73-5.773c3.379,0,5.022,1.971,4.881,5.491l-0.282,8.167
		c-0.094,2.159,0.329,4.083,2.159,4.083c0.469,0,0.892-0.141,1.173-0.281c0.235-0.141,0.469-0.329,0.61-0.329
		c0.188,0,0.329,0.282,0.329,0.61c0,0.235-1.643,2.065-3.942,2.065c-1.126,0-2.253-0.423-3.051-1.455
		c-0.188-0.282-0.469-0.657-0.751-0.657c-0.329,0-0.892,0.422-1.83,0.939c-1.033,0.563-2.065,1.174-3.379,1.174
		c-1.361,0-2.487-0.375-3.285-1.08c-0.892-0.798-1.455-1.971-1.455-3.285c0-1.83,0.892-2.91,3.896-3.989L167.163,23.842z
		 M164.254,32.102c0.939,0,2.393-0.704,2.863-1.173c0.563-0.563,0.563-1.22,0.61-2.206l0.094-2.769c0-0.516-0.188-0.61-0.469-0.61
		c-0.281,0-1.08,0.188-1.924,0.469c-2.769,0.939-4.13,1.643-4.13,3.473C161.297,30.084,161.86,32.102,164.254,32.102z"/>
	<path d="M177.715,19.618c-1.08-2.628-1.643-3.098-2.816-3.379l-0.751-0.188c-0.235-0.235-0.282-0.939,0.141-1.126
		c1.455,0.094,2.769,0.141,4.177,0.141c1.455,0,2.816-0.047,4.083-0.141c0.375,0.188,0.422,0.892,0.094,1.126l-1.08,0.188
		c-0.657,0.094-1.032,0.375-1.032,0.657c0,0.282,0.235,1.174,0.751,2.441l2.91,7.181c0.422,1.08,0.845,1.924,0.845,2.018
		c0.141-0.094,0.516-0.892,1.079-2.253l2.3-5.679c0.61-1.502,0.657-2.112,0.422-2.722c-0.422-1.032-1.126-1.408-2.159-1.642
		l-0.751-0.188c-0.329-0.282-0.235-0.986,0.141-1.126c1.173,0.094,2.675,0.141,3.896,0.141c1.455,0,2.863-0.047,4.459-0.141
		c0.422,0.141,0.422,0.892,0.141,1.126l-0.986,0.188c-1.877,0.375-1.783,0.516-1.22,2.159c0.516,1.549,3.051,7.509,3.567,8.777
		c0.281,0.704,0.469,1.22,0.61,1.314c0.094-0.094,0.329-0.563,0.657-1.314c0.61-1.361,2.487-6.336,3.191-8.307
		c0.375-1.08,0.469-1.69,0.469-2.018c0-0.281-0.281-0.516-0.845-0.61l-1.173-0.188c-0.375-0.235-0.281-0.986,0.047-1.126
		c1.361,0.094,2.535,0.141,3.708,0.141c0.892,0,2.018-0.047,3.051-0.141c0.375,0.188,0.423,0.892,0.141,1.126l-0.939,0.188
		c-1.126,0.235-1.549,0.892-2.534,2.957c-1.267,2.628-3.52,8.26-4.412,10.654c-0.657,1.69-1.22,3.051-1.596,4.271
		c-0.188,0.141-0.375,0.188-0.61,0.188c-0.188,0-0.375-0.047-0.516-0.188c-0.282-0.845-1.126-3.285-1.924-5.163l-2.253-5.397
		c-0.328-0.845-1.032-2.394-1.079-2.394c-0.047,0-0.704,1.455-1.033,2.3l-2.441,5.867c-0.845,2.018-1.502,3.708-1.877,4.787
		c-0.141,0.141-0.329,0.188-0.563,0.188c-0.188,0-0.422-0.047-0.563-0.188c-0.281-0.986-1.032-2.91-1.408-3.896L177.715,19.618z"/>
	<path d="M215.934,23.842c0.704-0.235,0.798-0.657,0.798-1.361l0.047-2.159c0.047-1.737-0.516-4.083-3.426-4.083
		c-1.314,0-2.91,0.657-3.004,2.112c-0.047,0.751-0.094,1.314-0.469,1.596c-0.704,0.563-1.971,0.892-2.675,0.892
		c-0.422,0-0.657-0.235-0.657-0.657c0-2.441,5.303-5.773,8.73-5.773c3.379,0,5.022,1.971,4.881,5.491l-0.282,8.167
		c-0.094,2.159,0.329,4.083,2.159,4.083c0.469,0,0.892-0.141,1.173-0.281c0.235-0.141,0.469-0.329,0.61-0.329
		c0.188,0,0.329,0.282,0.329,0.61c0,0.235-1.643,2.065-3.942,2.065c-1.126,0-2.253-0.423-3.051-1.455
		c-0.188-0.282-0.469-0.657-0.751-0.657c-0.329,0-0.892,0.422-1.83,0.939c-1.032,0.563-2.065,1.174-3.379,1.174
		c-1.361,0-2.487-0.375-3.285-1.08c-0.892-0.798-1.455-1.971-1.455-3.285c0-1.83,0.892-2.91,3.895-3.989L215.934,23.842z
		 M213.025,32.102c0.939,0,2.394-0.704,2.863-1.173c0.563-0.563,0.563-1.22,0.61-2.206l0.094-2.769c0-0.516-0.188-0.61-0.469-0.61
		c-0.281,0-1.079,0.188-1.924,0.469c-2.769,0.939-4.13,1.643-4.13,3.473C210.068,30.084,210.631,32.102,213.025,32.102z"/>
	<path d="M230.4,26.658c0,3.238,0.798,5.397,4.365,5.397c1.267,0,2.769-0.516,3.802-1.408c0.61-0.563,0.939-1.267,0.939-2.722
		v-7.697c0-3.051-0.328-3.145-1.736-3.708l-0.61-0.235c-0.329-0.188-0.329-0.845,0.047-1.033c1.877-0.047,4.459-0.375,5.491-0.845
		c0.235,0.047,0.375,0.141,0.422,0.329c-0.094,0.892-0.141,2.347-0.141,4.083v7.885c0,3.708,0.141,5.116,1.455,5.116
		c0.563,0,1.173-0.094,1.83-0.235c0.282,0.235,0.329,1.173-0.047,1.361c-1.83,0.375-4.552,0.845-6.148,1.736
		c-0.235,0-0.469-0.141-0.563-0.329v-1.924c0-0.422-0.141-0.657-0.422-0.657c-1.408,0.892-3.708,2.441-6.477,2.441
		c-4.13,0-5.679-2.065-5.679-5.867V20.51c0-2.957,0-3.379-1.408-3.989l-0.563-0.235c-0.282-0.235-0.235-0.892,0.094-1.033
		c2.159-0.047,3.99-0.469,5.022-0.845c0.281,0.047,0.422,0.141,0.469,0.329c-0.094,0.798-0.141,1.783-0.141,4.083V26.658z"/>
	<path d="M263.335,15.206c0.375,0.329,0.704,1.08,0.704,1.877c0,0.845-0.469,1.737-1.033,1.737c-0.235,0-0.469-0.094-0.657-0.329
		c-1.032-1.267-2.769-2.488-4.693-2.488c-3.285,0-6.477,2.581-6.477,7.556c0,3.661,2.534,8.026,7.556,8.026
		c2.722,0,4.13-1.22,5.21-2.816c0.375-0.094,0.798,0.235,0.845,0.657c-1.596,3.473-5.116,4.787-7.838,4.787
		c-2.488,0-4.787-0.798-6.43-2.394c-1.643-1.596-2.722-3.896-2.722-6.946c0-5.069,3.567-10.466,11.358-10.466
		C260.237,14.409,262.068,14.643,263.335,15.206z"/>
	<path d="M268.85,7.087c0-2.769-0.047-3.051-1.455-3.896l-0.469-0.281c-0.235-0.141-0.235-0.798,0-0.939
		c1.173-0.375,3.379-1.08,5.069-1.971c0.188,0,0.375,0.094,0.469,0.282c-0.047,1.408-0.141,3.755-0.141,5.82v9.856
		c0,0.422,0.047,0.798,0.188,0.892c1.69-1.314,3.943-2.441,6.336-2.441c4.459,0,6.054,2.769,6.054,6.054v7.838
		c0,3.379,0.094,3.896,1.784,4.083l1.267,0.141c0.328,0.235,0.235,1.033-0.094,1.174c-1.69-0.094-3.051-0.141-4.693-0.141
		c-1.69,0-3.097,0.047-4.365,0.141c-0.329-0.141-0.422-0.939-0.094-1.174l0.938-0.141c1.737-0.282,1.784-0.704,1.784-4.083v-6.712
		c0-3.004-1.455-5.022-4.459-5.022c-1.596,0-2.816,0.563-3.661,1.267c-0.845,0.704-0.986,0.939-0.986,2.581v7.885
		c0,3.379,0.094,3.848,1.783,4.083l0.986,0.141c0.329,0.188,0.235,1.033-0.094,1.174c-1.408-0.094-2.769-0.141-4.412-0.141
		c-1.69,0-3.097,0.047-4.599,0.141c-0.329-0.141-0.422-0.939-0.094-1.174l1.174-0.141c1.736-0.188,1.783-0.704,1.783-4.083V7.087z"
		/>
	<path d="M293.553,20.087c0-1.83,0-2.065-1.267-2.91l-0.422-0.282c-0.188-0.188-0.188-0.704,0.047-0.845
		c1.08-0.375,3.755-1.596,4.834-2.3c0.235,0,0.422,0.094,0.469,0.282c-0.094,1.643-0.188,3.896-0.188,5.82v8.448
		c0,3.379,0.094,3.848,1.783,4.083l0.986,0.141c0.329,0.235,0.235,1.033-0.094,1.174c-1.408-0.094-2.769-0.141-4.412-0.141
		c-1.69,0-3.098,0.047-4.412,0.141c-0.329-0.141-0.422-0.939-0.094-1.174l0.986-0.141c1.736-0.235,1.783-0.704,1.783-4.083V20.087z
		 M297.449,6.712c0,1.69-1.173,2.441-2.487,2.441c-1.455,0-2.394-1.08-2.394-2.347c0-1.549,1.126-2.535,2.535-2.535
		C296.51,4.271,297.449,5.397,297.449,6.712z"/>
</g>
</svg>
